<?xml version="1.0" encoding="UTF-8" standalone="no"?>
<svg width="1162px" height="1162px" viewBox="0 0 1162 1162" version="1.1" xmlns="http://www.w3.org/2000/svg" xmlns:xlink="http://www.w3.org/1999/xlink" xmlns:sketch="http://www.bohemiancoding.com/sketch/ns">
    <!-- Generator: Sketch 3.4.4 (17249) - http://www.bohemiancoding.com/sketch -->
    <title>icon</title>
    <desc>Created with Sketch.</desc>
    <defs></defs>
    <g id="Page-1" stroke="none" stroke-width="1" fill="none" fill-rule="evenodd" sketch:type="MSPage">
        <path d="M416.688477,870.963867 C416.688476,874.687488 418.157227,896.993167 421.26123,897.964358 C424.365234,898.93555 433.536133,893.612316 437.944336,893.612305 C442.352539,893.612293 456.161133,898.951183 456.161133,901.786133 C456.161133,904.621082 460.166992,936.166027 460.166992,939.250977 C460.166992,942.335926 461.847656,943.812512 464.682617,943.8125 C467.517578,943.812488 487.958008,938.688488 492.268555,938.688477 C496.579101,938.688465 519.246094,947.979504 519.246094,950.738281 C519.246094,953.497059 524.669922,976.819821 527.246094,977.688477 C529.822266,978.557132 534.415154,974.49666 541.30957,972.874026 C548.545679,971.170974 557.070241,971.033209 560.216797,971.033203 C566.361328,971.033192 575.401367,975.841808 579.548828,975.841797 C583.696289,975.841785 582.637207,982.43262 584.539062,985.880374 C586.440918,989.328128 584.772461,997.253415 588.702148,998.764648 C591.145442,999.704262 598.953125,993.717837 602.303223,993.1543 C605.65332,992.590762 609.200941,991.090828 610.934082,991.090823 C615.516113,991.090812 642.900055,982.426769 646.902344,982.426758 C650.904632,982.426746 657.566406,983.621105 657.566406,988.203125 C657.566406,991.283133 656.242555,998.11897 654.788574,1002.77381 C654.079519,1005.04381 652.658203,1005.6447 652.658203,1007.25684 C652.658203,1009.25599 655.500545,1010.26716 656.546875,1011.98731 C658.07454,1014.49876 658.336886,1017.3545 661.526367,1017.35449 C664.66377,1017.35448 680.75393,990.545598 698.951172,975.841797 C711.92379,965.359615 727.902495,965.526372 732.236328,965.526367 C742.649414,965.526356 754.78711,964.187512 754.787109,967.610352 C754.787109,971.033192 749.628906,979.008801 749.628906,982.47168 C749.628906,985.934559 748.59668,988.258801 751.007812,988.258789 C752.360296,988.258783 763.419279,967.174251 777.191406,952.453125 C787.971468,940.930239 802.114566,936.155281 805.790039,936.155276 C814.161133,936.155265 823.073242,936.976574 823.073242,939.745117 C823.073242,942.51366 821.847656,944.229504 824.431641,944.229492 C825.950897,944.229485 832.668279,928.677509 843.611328,918.794922 C851.28046,911.868986 863.206903,910.577644 866.056641,910.57764 C872.972656,910.577628 876.681394,914.470031 878.523437,914.110352 C881.924316,913.446292 886.476042,894.253216 897.481445,881.496097 C905.511328,872.188107 918.326692,865.971199 921.262695,865.971194 C928.222656,865.971183 928.21875,867.155285 932.366211,867.155273 C936.513672,867.155262 936.78125,861.39649 936.78125,858.226565 C936.78125,850.905279 940.458938,838.304492 950.522034,822.53949 C959.239609,808.882401 972.317383,799.195318 978.866211,799.187503 C985.415039,799.179687 992.432617,801.442394 993.985352,801.442383 C995.538086,801.442371 994.40918,799.336926 994.40918,797.610352 C994.409179,795.883778 990.958985,779.163097 990.958984,775.003906 C990.958984,772.810092 992.451786,749.970584 1000.2207,734.961914 C1007.18066,721.516069 1020.50586,718.514163 1020.50586,714.111331 C1020.50586,709.708499 1011.64746,705.10303 1011.64746,698.727539 C1011.64746,695.338088 1010.81006,689.769848 1010.81006,684.472171 C1010.81006,679.805021 1011.64746,675.280961 1011.64746,673.581055 C1011.64746,670.282932 1013.78844,657.421292 1020.50586,646.945312 C1027.41513,636.170132 1038.90625,627.79833 1038.90625,626.146484 C1038.90625,624.375182 1027.63405,619.101284 1022.00537,608.32471 C1017.28164,599.280732 1017.32812,583.131848 1017.32812,579.074222 C1017.32812,574.56979 1019.63524,560.963587 1023.37402,553.244629 C1027.0163,545.724924 1032.80664,545.706437 1032.80664,543.118164 C1032.80664,540.647717 1027.08594,533.775397 1025.979,529.132815 C1024.87207,524.490234 1023.37402,503.89816 1023.37402,501.382812 C1023.37402,499.40795 1022.74533,488.558133 1026.52979,479.764163 C1031.8572,467.384807 1042.13574,456.206757 1042.13574,454.542969 C1042.13574,453.002492 1027.61963,448.536624 1022.00537,436.305667 C1016.39111,424.07471 1015.42871,414.135256 1015.42871,403.494141 C1015.42871,392.129585 1014.86312,384.545795 1017.32812,376.090335 C1019.89531,367.284382 1025.49609,357.800305 1025.43652,355.836914 C1025.38382,354.099839 993.423322,357.505383 978.037109,344.876953 C961.930895,331.657573 961.154785,305.204105 961.154785,293.480472 C961.154785,285.364313 965.244133,275.288887 968.291992,268.886233 C969.646706,266.040378 971.488281,263.874376 971.488281,263.006836 C971.488281,260.187488 971.488281,259.456058 969.761719,259.456055 C968.035156,259.456052 943.704672,263.365431 929.575195,248.164554 C915.452379,232.970843 911.599609,204.483395 911.599609,196.420898 C911.599609,188.358401 915.930176,180.667969 914.541992,178.269534 C913.153809,175.8711 876.610352,191 856.548828,191.073242 C848.826041,191.101437 835.211857,189.973179 828.621765,183.08046 C818.09274,172.067926 818.860352,131.378906 814.22168,131.378906 C809.583008,131.378906 791.162109,134.513672 782.983398,134.524417 C774.804688,134.535162 752.274414,132.988773 740.079102,121.087405 C733.678779,114.84135 734.422852,110.40137 727.273438,102.925296 C720.124023,95.4492217 718.814941,97.1841918 713.279297,91.0874053 C707.743652,84.9906188 705.076577,79.3196133 702.939453,79.2470703 C697.185547,79.0517586 683.058594,85.8505859 683.058594,89.3037109 C683.058594,92.7568359 684.274414,96.578125 684.274414,99.1621094 C684.274414,101.746094 674.427735,115.78418 668.683594,115.78418 C662.939453,115.78418 650.391602,112.776367 646.199219,112.776367 C642.006836,112.776367 613.59961,103.938477 608.789062,103.938477 C603.978515,103.938477 573.248047,79.4423828 565.268555,79.4423828 C557.289062,79.4423828 541.309571,92.6376953 541.30957,98.2880859 C541.30957,103.178644 536.83136,112.75293 524.211757,112.475615 C511.592154,112.198301 501.126697,115.276717 484.802734,112.75293 C465.256794,109.731005 445.135899,101.751953 442.083008,101.751953 C436.480469,101.751953 428.510742,108.489258 428.510742,112.136719 C428.510742,115.78418 429.260742,114.459961 429.260742,117.652344 C429.260742,120.844727 407.132813,134.524414 402.040039,134.524414 C396.947265,134.524414 390.000977,136.792969 387.839844,136.792969 C385.678711,136.792969 378.946289,141.982422 375.938477,141.982422 C372.930664,141.982422 346.931641,161.429687 343.989258,161.429687 C341.046875,161.429687 333.825195,162.885742 333.825195,165.556641 C333.825195,168.227539 335.920898,173.676758 335.920898,178.269531 C335.920898,182.862305 334.443359,189.256836 329.427734,189.256836 C324.412109,189.256836 262.818359,243.55957 262.818359,251.507812 C262.818359,259.456055 263.655273,249 263.655273,262.203125 C263.655273,265.682617 248.157227,287.62793 230.658203,287.62793 C223.375977,287.62793 222.229492,289.768555 220.755859,293.304687 C219.282227,296.84082 218.09375,297.27832 213.936523,297.27832 C209.779297,297.27832 206.53125,296.84082 206.53125,312.736328 C206.53125,318.933168 201.076863,323.616094 198.384766,328.295898 C194.171366,335.620256 191.80518,341.425781 189.979492,341.425781 C188.206039,341.425781 182.362305,341.699219 182.362305,349.831055 C182.362305,353.052734 180.023225,351.918722 179.751953,353.052734 C179.085938,355.836914 183.696289,362.310547 183.696289,366.837891 C183.696289,388.810547 170.549805,404.004883 170.549805,407.392578 C170.549805,410.780273 159.206055,412.645508 159.206055,421.779297 C159.206055,430.913086 160.862305,428.041992 160.862305,433.158203 C160.862305,457.074219 138.790039,481.374023 137.248047,485.792969 C136.716844,487.315256 134.479492,499.05957 134.479492,499.05957 C134.479492,499.05957 124.977539,524.985948 124.977539,526.97168 C124.977539,530.000977 120.483398,541.551758 120.483398,548.130859 C120.483398,551.73169 119.752227,557.712252 117.378906,562.080078 C115.415918,565.692736 111.732422,567.644243 111.732422,571.206055 C111.732422,579.074219 111.411806,590.166102 109.665039,597.390625 C108.63472,601.651962 105.782227,601.389539 105.782227,603.307617 C105.782227,608.477539 106.912109,607.378906 116.792969,607.378906 C123.807617,607.378906 139.349609,633.761719 139.349609,642.469727 C139.349609,651.177734 137.248047,649.560547 137.248047,663.556641 C137.248047,677.552734 191.59082,720.893555 192.805664,767.583008 C193.042127,776.670878 193.952842,787.249189 183.696289,800.234375 C177.896484,807.577148 169.494141,803.681641 169.801758,798.410156 C170.49649,786.504876 176.551758,784.442383 176.551758,774.308594 C176.551758,764.174805 160.862305,734.961914 143.602539,734.961914 C140.583984,734.961914 139.349609,763.879883 139.349609,767.583008 C139.349609,771.286133 131.663086,785.733398 131.782227,800.234375 C131.901367,814.735352 150.083984,844.638672 153.767578,848.329102 C157.451172,852.019531 173.662196,859.622976 180.417969,862.953125 C199.973633,872.592773 215.373047,882.791016 225.524414,894.054687 C235.675781,905.318359 250.873047,921.826172 250.873047,940.811523 C250.873047,959.796875 237.620117,967.646484 237.620117,982.125977 L237.620117,991.09082 C237.620117,993.338867 238.368164,997.982422 231.898437,1005.26074 C228.725317,1008.83044 213.936523,1018.2793 202.949219,1023.11328 C191.961914,1027.94727 175.486006,1027.39844 170.549805,1027.39844 C160.862305,1027.39844 151.912143,1017.49805 150.615234,1017.49805 C148.486328,1017.49805 128.890625,1018.2793 128.890625,1004.37305 C128.890625,999.016602 128.890625,999.016602 133.375,998.835937 C170.588035,997.336719 195.504562,981.30957 196.483398,954.165039 C196.988181,940.166682 186.987305,905.318359 147.56543,905.318359 C108.143555,905.318359 78.4667969,886.927734 53.890625,844.87207 C29.3144531,802.816406 20.2558594,744.827225 20.2558594,722.426758 C20.2558594,677.058594 41.4852676,640.158936 63.4379463,623.768921 C70.385459,618.581862 70.0486336,616.628909 75.3725281,616.628909 C79.5997963,616.628909 92.9492188,606.190266 92.9492188,603.623047 C92.9492188,596.225162 83.3489914,599.236514 83.2998505,583.500003 C83.2770339,576.193396 86.3460922,574.28034 86.3460922,568.574893 C86.3460922,562.869446 82.6429358,559.729543 85.390625,553.244629 C88.1419568,546.751118 96.3886719,542.239017 96.3886719,538.949219 C96.3886719,535.659421 89.0439453,516.167969 89.0439453,511.141602 C89.0439453,506.115234 92.0566406,493.803711 94.2226563,493.803711 C96.3886719,493.803711 96.578125,499.05957 99.4990234,499.05957 C102.419922,499.05957 102.52832,494.380859 102.52832,488.419922 C102.52832,482.458984 97.1650391,479.439365 97.1650391,470.647461 C97.1650391,461.855557 94.4469032,450.060234 99.4990234,439.403412 C104.274067,429.33105 117.378906,424.488333 117.378906,421.544922 C117.378906,415.487305 116.041061,416.369113 116.041061,397.459201 C116.041061,388.069826 118.706779,381.533084 118.706774,377.68547 C118.706769,373.837856 121.807002,371.926211 122.571861,371.926211 C129.504402,371.926211 135.706055,366.772196 135.706055,362.310547 C135.706055,355.836914 131.782227,336.164062 131.782227,333.232422 C131.782227,330.300781 136.938477,307.199219 140.814453,307.199219 C144.69043,307.199219 149.620117,312.736328 153.767578,312.736328 C157.915039,312.736328 157.451172,311.56445 157.451172,296.84082 C157.451172,282.11719 169.494141,264.716797 169.494141,261.577148 C169.494141,258.4375 166.739258,255.234375 170.549805,255.234375 C174.360352,255.234375 179.36731,260.187488 181.006958,260.187488 C182.646606,260.187488 186.326965,252.987308 189.319153,252.987308 C192.31134,252.987308 200.513672,249.047852 200.513672,246.397461 C200.513672,243.74707 197.663406,243.123675 197.663406,237.705081 C197.663406,231.019003 224.817871,178.269534 230.658203,178.269534 C236.498535,178.269534 237.081802,191.000003 241.913834,191.000003 C243.586965,191.000003 259.25264,186.604175 265.568069,174.338443 C283.475091,139.559696 284.1875,143.494138 303.417969,122.623047 C322.648438,101.751956 350.644592,97.1841918 358.089722,97.1841918 C365.534851,97.1841918 368.737305,105.792969 370.636719,105.792969 C372.52655,105.792969 405.996307,42.6610545 452.591303,42.6610547 C462.491913,42.6610547 474.382568,41.4202539 480.98938,51.3425552 C493.030065,69.4256055 486.071768,65.8116122 501.94397,54.564912 C535.264709,30.9545542 570.318692,27.0108672 578.617737,27.0108672 C592.421448,27.0108672 605.544983,33.0684695 620.562378,33.0684695 C635.579773,33.0684695 637.718872,48.3417969 641.046021,48.3417969 C644.373169,48.3417969 662.974609,36.1494141 682.99707,36.1494141 C703.019531,36.1494141 709.534729,37.5639458 735.023804,48.3417969 C760.512878,59.119648 768.491211,72.431633 773.022461,81.1652489 C775.118392,85.2049849 777.191406,83.0441551 777.191406,81.1652489 C777.191406,79.2863426 773.022461,68.0224609 773.022461,66.0927734 C773.022461,64.1630859 780.480469,60.0029297 794.473633,60.0029297 C808.466797,60.0029297 816.933161,64.9891001 834.076233,82.2089806 C846.034807,94.2211343 861.147705,120.63475 862.895142,126.571381 C864.642578,132.508011 869.963865,131.378906 870.538879,131.378906 C873.742004,131.378906 866.056641,114.90332 866.056641,112.75293 C866.056641,110.602539 874.697266,109.734375 876.610352,109.734375 C877.60981,109.734375 899.675354,112.01399 916.539795,122.623047 C931.955963,132.321026 937.528137,145.317131 943.526062,152.370491 C949.523987,159.423851 955.660156,183.616211 955.660156,187.091797 C955.660156,190.567383 953.839844,191 957.366211,191 C958.999668,191 982.016274,192.025119 1000.2207,207.052734 C1021.31667,224.46729 1037.31146,250.125992 1037.31146,267.10202 C1037.31146,284.078049 1036.7959,285.230469 1038.90625,285.230469 C1044.68665,285.230469 1053.64374,285.659147 1064.3822,293.480469 C1077.04208,302.701249 1088.38354,319.168945 1091.10242,327.5914 C1093.82129,336.013855 1097.58753,345.136986 1093.41797,362.310547 C1088.88471,380.982107 1070.89941,394.153015 1070.89941,398.331879 C1070.89941,402.510742 1083.76593,408.808533 1094.47559,423.207672 C1106.78301,439.755004 1117.6193,460.898971 1117.99866,471.769745 C1118.09406,474.503551 1118.88485,479.914607 1117.28918,484.620361 C1114.79138,491.986583 1109.16386,498.049477 1105.43506,502.38916 C1102.76188,505.500276 1101.93701,508.850805 1099.84888,510.222534 C1097.24502,511.933054 1093.65589,511.478976 1093.41797,514.222656 C1093.23317,516.353734 1097.35731,521.73969 1100.78906,528.323334 C1105.31871,537.013245 1109.50366,547.564595 1109.50366,553.244629 C1109.50366,563.227966 1106.2975,571.486335 1100.78906,579.074219 C1092.61623,590.332325 1078.08105,595.220276 1077.44495,603.623047 C1077.18249,607.09 1081.27194,608.079788 1083.03552,610.480774 C1085.54629,613.899 1087.10448,618.049683 1088.38354,618.049683 C1090.56104,618.049683 1095.22266,617.289062 1095.22266,610.480774 C1095.22266,603.672485 1097.37511,595.24193 1097.6582,597.390625 C1098.16334,601.224646 1102.3857,604.444745 1106.07983,609.767883 C1110.95416,616.791634 1115.49927,626.269859 1115.2168,633.703125 C1114.35283,656.438483 1095.06812,677.858026 1094.47559,678.364258 C1090.82812,681.480469 1079.24988,690.754333 1079.24988,694.447693 C1079.24988,698.141052 1092.98926,708.274414 1092.98926,715.350586 C1092.98926,718.809321 1099.85193,734.439575 1099.84888,742.644592 C1099.84583,750.849609 1094.88123,765.876282 1084.7179,765.876282 C1080.76348,765.876282 1076.45569,774.308594 1071.95837,775.003906 C1067.46106,775.699219 1056.61133,780.560741 1056.61133,783.993958 C1056.61133,789.61377 1062.89111,801.442383 1062.89111,812.884338 C1062.89111,824.326294 1059.80957,830.76532 1048.91064,843.396851 C1038.01172,856.028381 1019.02493,869.223633 1017.32812,869.223633 C1014.21191,869.223633 1004.08301,874.726562 1004.08301,877.734375 C1004.08301,880.742187 1006.62305,893.398437 1006.62305,896.993164 C1006.62305,898.418311 1009.51108,916.492737 991.985229,931.264709 C974.459374,946.036682 956.84082,948.433594 947.874329,948.433594 C938.907837,948.433594 934.822266,945.762695 932.834961,945.762695 C930.847656,945.762695 924.512512,986.398132 918.222656,986.398132 C915.496848,986.398132 914.660156,989.624023 911.599609,992.590759 C908.539062,995.557495 902.066746,998.835937 895.515625,998.835937 C883.954163,998.835937 886.484314,1002.7738 878.523438,1002.7738 C870.562561,1002.7738 866.609375,996.605469 864.642578,996.605469 C862.675781,996.605469 861.133789,1001.69824 861.133789,1005.67187 C861.133789,1007.3104 861.106486,1017.26011 856.548828,1023.11328 C850.05357,1031.45481 837.888306,1036.10352 834.076233,1036.10352 C827.451477,1036.10352 831.565552,1031.53223 824.636719,1031.53223 C821.521767,1031.53223 813.485901,1036.10352 808.466797,1036.10352 C803.447693,1036.10352 798.043017,1038.13867 796.379883,1038.13867 C793.358398,1038.13867 791.990967,1036.10352 790.339539,1038.13867 C788.68811,1040.17383 791.48053,1039.6106 789.159607,1042.95111 C786.838684,1046.29163 783.125549,1051.0401 781.240173,1053.05762 C779.354797,1055.07513 778.838196,1053.05762 776.020386,1055.50781 C773.202576,1057.95801 771.416989,1060.68457 768.491211,1060.68457 L749.628906,1060.68457 C744.470703,1060.68457 742.26304,1063.56055 740.079102,1063.56055 C734.629517,1063.56055 727.322266,1055.50781 720.124023,1055.50781 C715.076172,1055.50781 715.076172,1059.77246 715.076172,1062.28125 C715.076172,1064.79004 706.280273,1076.18994 702.396484,1080.04297 C700.276909,1082.14576 691.177734,1088.92603 684.825915,1088.92607 C678.474096,1088.92612 671.934769,1093.38037 668.683594,1093.38037 C661.526367,1093.38037 652.658203,1087.24414 643.242188,1087.24414 C633.826172,1087.24414 642.269531,1092.35254 621.338867,1092.35254 C600.408203,1092.35254 589.256836,1080.9209 582.751953,1080.9209 C576.24707,1080.9209 566.776367,1069.97559 562.460449,1068.40967 C558.144531,1066.84375 553.694744,1057.37891 552.708008,1057.37891 C549.925781,1057.37891 548.464355,1059.53516 548.464355,1066.84375 C548.464355,1074.15234 538.626465,1077.87695 529.822266,1077.87695 C521.018066,1077.87695 504.644043,1069.09961 492.268555,1055.50781 C479.893066,1041.91602 480.608887,1027.99805 471.611328,1027.99805 C462.61377,1027.99805 450.310547,1018.65967 446.644531,1018.65967 C440.361328,1018.65967 428.510742,1007.25684 428.510742,1001.05225 C428.510742,994.847656 415.871094,985.714355 415.871094,981.30957 C415.871094,976.29582 413.049316,954.76416 410.605469,951.773437 C408.161621,948.782715 406.819986,948.433594 405.285156,948.433594 C399.774414,948.433594 399.364228,952.132766 391.987305,952.453125 C377.842773,953.067383 366.533203,927.880859 366.533203,923.601562 C366.533203,919.322266 369.475586,916.976562 369.475586,911.147461 C369.475586,905.318359 364.449219,903.669922 364.449219,895.546875 C364.449219,887.423828 363.361328,894.054687 354.182129,894.054687 C345.00293,894.054687 335.943359,863.341797 335.943359,861.080078 C335.943359,858.818359 337.59375,860.180664 337.59375,844.87207 C337.59375,829.563477 416.688477,867.240246 416.688477,870.963867 Z" id="hair" fill="#C7C7C7" sketch:type="MSShapeGroup"></path>
        <g id="icon" sketch:type="MSArtboardGroup" font-weight="normal" font-family="Courier" fill="#000000" font-size="342.137452">
            <g id="break" sketch:type="MSLayerGroup" transform="translate(0.000000, 141.000000)">
                <text id="ak" sketch:type="MSTextLayer" transform="translate(884.113940, 400.586333) rotate(-333.000000) translate(-884.113940, -400.586333) ">
                    <tspan x="677.721743" y="472.898586">ak</tspan>
                </text>
                <text id="bre" sketch:type="MSTextLayer" transform="translate(361.556129, 369.764469) rotate(-20.000000) translate(-361.556129, -369.764469) ">
                    <tspan x="51.9678336" y="442.076722">bre</tspan>
                </text>
            </g>
        </g>
    </g>
</svg>